<svg xmlns:x="http://ns.adobe.com/Extensibility/1.0/" xmlns:i="http://ns.adobe.com/AdobeIllustrator/10.0/" xmlns:graph="http://ns.adobe.com/Graphs/1.0/" xmlns="http://www.w3.org/2000/svg" xmlns:xlink="http://www.w3.org/1999/xlink" version="1.1" x="0px" y="0px" viewBox="0 0 100 125" enable-background="new 0 0 100 100" xml:space="preserve"><metadata><sfw xmlns="http://ns.adobe.com/SaveForWeb/1.0/"><slices/><sliceSourceBounds width="1447.7" height="1443.7" x="1.2" y="-1446.3" bottomLeftOrigin="true"/></sfw></metadata><path d="M33,55.4c-2.2-2.2-2.2-5.8,0-8c2.2-2.2,5.8-2.2,8,0l3.7,3.7l14.4-14.3c2.2-2.2,5.8-2.2,8,0c2.2,2.2,2.2,5.8,0,8L48.6,63.1  c-1.1,1.1-2.5,1.6-4,1.6c-1.4,0-2.9-0.6-4-1.7L33,55.4z M2.6,50C2.6,23.9,23.9,2.6,50,2.6c26.1,0,47.4,21.3,47.4,47.4  c0,26.1-21.3,47.4-47.4,47.4C23.9,97.4,2.6,76.1,2.6,50z M13.9,50c0,19.9,16.2,36.1,36.1,36.1c19.9,0,36.1-16.2,36.1-36.1  c0-19.9-16.2-36.1-36.1-36.1C30.1,13.9,13.9,30.1,13.9,50z"/><text x="0" y="115" fill="#000000" font-size="5px" font-weight="bold" font-family="'Helvetica Neue', Helvetica, Arial-Unicode, Arial, Sans-serif">Created by Gregor Črešnar</text><text x="0" y="120" fill="#000000" font-size="5px" font-weight="bold" font-family="'Helvetica Neue', Helvetica, Arial-Unicode, Arial, Sans-serif">from the Noun Project</text></svg>